<?xml version="1.0" standalone="no"?>
<!DOCTYPE svg PUBLIC "-//W3C//DTD SVG 20010904//EN"
 "http://www.w3.org/TR/2001/REC-SVG-20010904/DTD/svg10.dtd">
<svg version="1.0" xmlns="http://www.w3.org/2000/svg"
 width="1056.000000pt" height="1056.000000pt" viewBox="0 0 1056.000000 1056.000000"
 preserveAspectRatio="xMidYMid meet">
<metadata>
Created by potrace 1.14, written by Peter Selinger 2001-2017
</metadata>
<g transform="translate(0.000000,1056.000000) scale(0.100000,-0.100000)"
fill="#000000" stroke="none">
<path d="M1650 10096 c-94 -41 -112 -80 -126 -271 -3 -44 -7 -91 -8 -105 l-2
-25 -189 -5 c-194 -6 -209 -8 -258 -44 -25 -18 -70 -78 -73 -98 -1 -5 -2 -9
-4 -10 -4 -6 -10 -49 -16 -128 -3 -47 -8 -101 -9 -120 -2 -19 -6 -73 -9 -120
-4 -47 -8 -107 -11 -135 -2 -27 -7 -86 -10 -130 -3 -44 -8 -100 -11 -125 -2
-25 -6 -79 -9 -120 -3 -41 -7 -100 -10 -130 -3 -30 -7 -84 -10 -120 -24 -314
-32 -420 -40 -500 -5 -57 -17 -232 -19 -285 -1 -22 -4 -45 -7 -50 -3 -6 -5
-38 -4 -72 0 -35 -2 -63 -5 -63 -3 0 -6 -33 -8 -73 -2 -39 -5 -92 -7 -117 -5
-61 -15 -182 -20 -255 -3 -33 -8 -96 -11 -140 -4 -44 -7 -101 -8 -127 0 -27
-3 -48 -6 -48 -3 0 -6 -24 -6 -52 -1 -29 -4 -87 -8 -128 -4 -41 -9 -109 -12
-150 -3 -41 -7 -93 -9 -115 -5 -51 -17 -231 -19 -267 0 -16 -3 -28 -6 -28 -3
0 -5 -21 -6 -48 0 -26 -4 -92 -8 -147 -10 -140 -13 -172 -32 -400 -3 -38 -7
-95 -9 -125 -2 -30 -4 -55 -5 -55 0 0 -3 -31 -5 -70 -2 -38 -6 -98 -9 -132 -8
-91 -16 -180 -21 -243 -4 -56 -12 -159 -20 -260 -8 -102 -16 -202 -21 -269 -3
-36 -7 -91 -9 -121 -3 -30 -7 -86 -9 -125 -3 -38 -5 -70 -6 -70 -1 0 -3 -22
-5 -50 -4 -60 -12 -153 -20 -255 -3 -41 -8 -102 -10 -135 -2 -33 -5 -60 -5
-60 -1 0 -3 -22 -5 -50 -10 -150 -17 -246 -20 -295 -2 -30 -5 -55 -6 -55 -1 0
-5 -39 -14 -180 -4 -55 -8 -116 -11 -135 -6 -54 -18 -232 -17 -262 0 -16 -3
-28 -6 -28 -3 0 -7 -26 -8 -58 -2 -73 -11 -211 -18 -282 -7 -70 -13 -149 -20
-270 -8 -114 -8 -113 -20 -122 -6 -5 -5 -8 3 -8 7 0 11 -4 8 -8 -3 -5 -8 -46
-11 -93 -3 -46 -7 -102 -10 -124 -2 -22 -7 -80 -10 -130 -3 -49 -8 -115 -11
-145 -5 -55 -7 -80 -21 -245 -10 -134 -7 -188 16 -233 24 -47 83 -99 128 -111
18 -5 2106 -8 4855 -7 l4823 1 37 23 c41 26 78 71 97 119 12 30 10 203 -3 283
-3 14 -7 66 -11 115 -6 91 -11 154 -20 255 -3 30 -7 87 -10 125 -11 136 -13
171 -19 240 -17 187 -26 304 -31 385 -2 30 -4 55 -5 55 -1 0 -3 20 -5 45 -1
25 -6 81 -10 125 -3 44 -9 107 -11 140 -6 78 -13 159 -18 215 -2 25 -7 83 -10
130 -3 47 -9 117 -12 155 -4 39 -7 89 -8 113 0 23 -3 42 -6 42 -3 0 -5 19 -6
43 -1 56 -12 210 -19 272 -3 28 -6 74 -7 102 0 29 -4 53 -7 53 -3 0 -6 24 -7
53 0 45 -9 178 -20 297 -1 19 -4 56 -5 83 -1 26 -5 47 -8 47 -3 0 -6 28 -7 63
0 58 -7 154 -21 292 -3 33 -7 78 -8 100 -1 22 -3 40 -4 40 -1 0 -3 36 -6 81
-2 44 -6 100 -9 125 -5 44 -16 178 -21 254 -2 22 -6 69 -9 105 -3 36 -8 94
-11 130 -2 36 -6 88 -9 115 -3 28 -8 88 -11 135 -4 47 -9 88 -11 92 -2 3 0 10
6 13 7 4 7 11 2 18 -5 7 -9 19 -9 27 0 8 -3 45 -7 83 -3 37 -8 95 -11 130 -3
34 -7 91 -10 127 -12 147 -16 197 -18 235 -2 22 -6 46 -10 53 -5 7 -3 12 3 12
6 0 8 5 4 11 -4 7 -8 33 -10 58 -4 53 -12 149 -18 236 -3 33 -8 87 -11 120 -5
55 -12 145 -20 265 -2 25 -4 45 -5 45 -1 0 -4 27 -5 60 -2 33 -7 89 -10 125
-3 36 -7 90 -9 120 -2 30 -5 55 -6 55 -1 0 -3 27 -5 60 -3 33 -6 87 -9 120 -3
33 -7 87 -9 120 -7 88 -18 223 -23 275 -2 25 -6 77 -9 115 -9 109 -14 164 -20
240 -4 39 -8 90 -10 115 -2 25 -4 45 -5 45 0 0 -3 32 -5 70 -9 143 -19 260
-41 495 -3 30 -7 89 -9 130 -2 41 -5 75 -5 75 -2 0 -5 34 -15 160 -4 50 -8 99
-9 110 -4 36 -34 94 -63 121 -58 55 -98 64 -289 65 -95 0 -178 -3 -184 -6 -5
-3 -11 0 -11 7 -1 7 -3 29 -4 48 -2 19 -6 64 -10 100 -3 36 -8 81 -9 101 -5
55 -34 105 -78 136 l-41 28 -3596 1 c-2599 1 -3603 -2 -3621 -10z"/>
</g>
</svg>
